<svg xmlns="http://www.w3.org/2000/svg" xmlns:xlink="http://www.w3.org/1999/xlink" version="1.1" x="0px" y="0px" viewBox="84.048 24.197 431.904 539.8199999999999" enable-background="new 84.048 24.197 431.904 431.856" xml:space="preserve"><g><g><path d="M488.827,239.482c0.035-22.436,23.257-49.642,23.257-49.642c4.496-5.271,2.778-11.285-3.818-13.385    c0,0-35.934-11.439-47.769-30.03c-11.811-18.604-6.647-51.04-6.647-51.04c1.094-6.837-3.612-11.534-10.44-10.449    c0,0-32.434,5.161-51.029-6.635c-18.606-11.832-30.048-47.773-30.048-47.773c-2.1-6.593-8.12-8.314-13.385-3.82    c0,0-27.199,23.224-49.631,23.263c-22.43-0.039-49.628-23.266-49.628-23.266c-5.266-4.495-11.284-2.777-13.386,3.819    c0,0-11.439,35.941-30.035,47.777c-18.604,11.8-51.031,6.635-51.031,6.635c-6.833-1.085-11.535,3.612-10.45,10.449    c0,0,5.163,32.432-6.634,51.032c-11.832,18.599-47.779,30.038-47.779,30.038c-6.591,2.1-8.309,8.119-3.818,13.385    c0,0,23.224,27.199,23.263,49.628c-0.031,22.436-23.263,49.637-23.263,49.637c-4.495,5.261-2.778,11.285,3.818,13.377    c0,0,35.938,11.438,47.779,30.035c11.8,18.604,6.638,51.033,6.638,51.033c-1.089,6.837,3.613,11.531,10.446,10.446    c0,0,32.432-5.157,51.027,6.635c18.6,11.836,30.039,47.778,30.039,47.778c2.102,6.593,8.12,8.314,13.386,3.819    c0,0,27.193-23.22,49.625-23.26c22.441,0.036,49.639,23.264,49.639,23.264c5.271,4.495,11.288,2.77,13.389-3.819    c0,0,11.439-35.935,30.031-47.763c18.601-11.812,51.032-6.646,51.032-6.646c6.834,1.081,11.536-3.613,10.45-10.45    c0,0-5.158-32.425,6.636-51.024c11.827-18.604,47.776-30.048,47.776-30.048c6.593-2.103,8.309-8.116,3.818-13.385    C512.084,289.098,488.862,261.904,488.827,239.482z M299.316,388.762c-82.452,0-149.294-66.842-149.294-149.295    c0-82.447,66.838-149.292,149.294-149.292s149.295,66.841,149.295,149.292C448.611,321.92,381.772,388.762,299.316,388.762z     M345.314,107.515l-126.55,154.007h73.247l-38.173,110.394l126.542-154.002H307.14L345.314,107.515z"/></g></g><text x="84.048" y="471.053" fill="#000000" font-size="5px" font-weight="bold" font-family="'Helvetica Neue', Helvetica, Arial-Unicode, Arial, Sans-serif">Created by Tristan</text><text x="84.048" y="476.053" fill="#000000" font-size="5px" font-weight="bold" font-family="'Helvetica Neue', Helvetica, Arial-Unicode, Arial, Sans-serif">from the Noun Project</text></svg>